<svg xmlns="http://www.w3.org/2000/svg" xmlns:xlink="http://www.w3.org/1999/xlink" width="500" zoomAndPan="magnify" viewBox="0 0 375 374.999991" height="500" preserveAspectRatio="xMidYMid meet" version="1.0"><defs><g/><clipPath id="c9f945880b"><path d="M 212 82.007812 L 248 82.007812 L 248 174 L 212 174 Z M 212 82.007812 " clip-rule="nonzero"/></clipPath><clipPath id="051e7a81b4"><path d="M 109 171 L 278 171 L 278 175.007812 L 109 175.007812 Z M 109 171 " clip-rule="nonzero"/></clipPath></defs><path fill="#fffafa" d="M 143.351562 144.515625 C 141.882812 143.351562 140.414062 142.1875 139.199219 141.023438 C 136.566406 138.492188 135.503906 134.796875 136.0625 131.152344 C 136.417969 128.875 136.417969 126.597656 136.0625 124.269531 C 135.453125 119.765625 133.734375 115.308594 130.695312 111.816406 C 127.507812 108.171875 122.800781 106.605469 117.839844 107.972656 C 116.726562 108.273438 115.664062 108.78125 114.804688 109.386719 C 112.730469 110.804688 110.199219 111.363281 107.71875 110.90625 C 100.125 109.589844 99.875 115.058594 101.796875 115.109375 C 104.125 115.160156 109.894531 114.550781 110.199219 119.308594 C 110.097656 121.585938 110.453125 124.117188 111.160156 126.800781 C 111.566406 128.316406 112.121094 129.785156 112.882812 131.152344 C 114.449219 134.136719 116.121094 135.808594 118.953125 137.628906 C 121.738281 139.402344 125.128906 140.515625 129.179688 139.808594 C 129.480469 139.757812 130.847656 139.554688 131.152344 139.910156 C 131.253906 140.007812 137.226562 147.144531 137.226562 147.144531 C 138.339844 148.359375 139.402344 151.703125 140.261719 154.789062 C 140.769531 152.105469 141.730469 149.222656 142.742188 146.4375 C 142.945312 145.78125 143.148438 145.171875 143.351562 144.515625 Z M 116.472656 127.253906 C 113.640625 121.535156 114.550781 115.359375 118.449219 113.4375 C 122.347656 111.515625 127.8125 114.550781 130.644531 120.269531 C 133.480469 125.988281 132.570312 132.164062 128.671875 134.085938 C 124.773438 135.960938 119.308594 132.921875 116.472656 127.253906 Z M 116.472656 127.253906 " fill-opacity="1" fill-rule="nonzero"/><path fill="#fffafa" d="M 139.199219 123.105469 C 140.3125 125.179688 141.628906 127.050781 143.25 128.671875 C 145.832031 131.304688 147.097656 134.898438 146.4375 138.492188 C 145.527344 143.703125 142.488281 149.828125 141.578125 155.042969 C 141.273438 156.710938 141.425781 158.433594 142.035156 160.050781 L 147.398438 173.3125 L 159.851562 173.3125 L 155.394531 155.246094 C 154.636719 152.5625 151.246094 144.96875 151.601562 142.238281 C 151.601562 142.238281 152.257812 132.972656 152.308594 132.824219 C 152.359375 132.367188 153.574219 131.757812 153.878906 131.609375 C 157.523438 129.785156 159.648438 126.902344 160.914062 123.863281 C 162.179688 120.726562 162.53125 118.398438 162.078125 115.058594 C 161.875 113.539062 161.46875 112.019531 160.964844 110.550781 C 157.472656 101.238281 150.890625 96.785156 144.515625 99.164062 C 139.65625 100.988281 136.769531 104.984375 136.316406 109.84375 C 135.253906 110.703125 134.59375 110.652344 134.847656 113.945312 C 134.949219 115.109375 136.164062 116.019531 136.769531 116.371094 C 137.175781 118.75 138.035156 120.980469 139.199219 123.105469 Z M 148.160156 154.839844 C 147.347656 155.09375 146.4375 154.636719 146.132812 153.828125 C 145.882812 153.015625 146.335938 152.105469 147.144531 151.800781 C 147.957031 151.550781 148.867188 152.003906 149.171875 152.816406 C 149.476562 153.625 148.96875 154.535156 148.160156 154.839844 Z M 147.097656 103.972656 C 151.398438 103.265625 155.75 107.769531 156.8125 114.042969 C 157.875 120.320312 155.195312 125.988281 150.890625 126.699219 C 146.589844 127.40625 142.238281 122.902344 141.175781 116.625 C 140.109375 110.351562 142.792969 104.730469 147.097656 103.972656 Z M 147.097656 103.972656 " fill-opacity="1" fill-rule="nonzero"/><path fill="#fffafa" d="M 246.246094 123.457031 C 244.730469 130.695312 245.945312 138.746094 241.035156 144.867188 C 237.441406 149.371094 231.519531 152.664062 226.40625 154.890625 C 226.863281 155.699219 227.316406 156.410156 227.671875 156.964844 C 228.734375 158.6875 229.191406 160.660156 228.988281 162.683594 C 233.695312 154.03125 239.617188 152.867188 242.300781 152.816406 C 243.058594 152.816406 243.769531 152.308594 243.96875 151.550781 C 245.589844 145.121094 252.777344 140.464844 259.304688 139.453125 C 269.683594 137.832031 280.511719 126.191406 273.226562 115.765625 C 267.203125 107.210938 254.144531 109.539062 248.726562 117.335938 C 247.5625 117.4375 245.386719 117.789062 244.476562 119.207031 C 243.210938 121.179688 246.246094 123.457031 246.246094 123.457031 Z M 256.625 118.195312 C 261.28125 114.957031 267.152344 115.410156 269.730469 119.15625 C 272.3125 122.902344 270.695312 128.570312 266.039062 131.757812 C 261.382812 135 255.511719 134.542969 252.929688 130.796875 C 250.296875 127.050781 251.96875 121.433594 256.625 118.195312 Z M 256.625 118.195312 " fill-opacity="1" fill-rule="nonzero"/><g clip-path="url(#c9f945880b)"><path fill="#fffafa" d="M 212.4375 173.363281 L 225.140625 173.363281 L 228.734375 167.339844 C 229.796875 165.621094 230.050781 163.496094 229.496094 161.570312 C 227.925781 156.308594 225.292969 145.121094 227.824219 136.820312 C 230.40625 128.417969 239.261719 124.976562 244.324219 118.398438 C 250.195312 110.753906 246.855469 97.949219 237.996094 94.660156 C 237.390625 88.585938 229.242188 82.007812 227.167969 82.96875 C 225.394531 83.777344 232.582031 88.585938 232.378906 93.902344 C 220.738281 94.761719 217.601562 109.539062 222.003906 118.652344 C 224.839844 124.621094 225.039062 133.175781 220.636719 138.136719 C 220.132812 138.746094 220.082031 139.605469 220.535156 140.261719 C 222.054688 142.539062 224.535156 148.410156 219.421875 157.671875 C 217.851562 160.507812 215.324219 166.277344 212.4375 173.363281 Z M 232.835938 98.558594 C 237.390625 98.609375 241.085938 103.214844 241.035156 108.832031 C 240.984375 114.5 237.238281 119.054688 232.683594 119.003906 C 228.128906 118.953125 224.433594 114.347656 224.484375 108.730469 C 224.535156 103.113281 228.28125 98.558594 232.835938 98.558594 Z M 221.09375 164.558594 C 221.800781 163.796875 223.015625 163.746094 223.773438 164.457031 C 224.535156 165.164062 224.585938 166.378906 223.875 167.136719 C 223.167969 167.898438 221.953125 167.949219 221.195312 167.238281 C 220.433594 166.53125 220.382812 165.367188 221.09375 164.558594 Z M 221.09375 164.558594 " fill-opacity="1" fill-rule="nonzero"/></g><path fill="#fffafa" d="M 166.125 173.363281 L 183.738281 173.363281 C 184.195312 173.261719 184.5 172.808594 184.449219 172.300781 C 184.398438 171.792969 183.941406 171.441406 183.4375 171.492188 L 170.683594 172.859375 C 170.226562 172.910156 169.820312 172.605469 169.769531 172.148438 L 169.769531 172.097656 C 169.71875 171.644531 170.023438 171.238281 170.429688 171.1875 L 183.03125 168.859375 C 183.539062 168.757812 183.890625 168.25 183.789062 167.695312 C 183.6875 167.238281 183.234375 166.9375 182.726562 166.988281 L 170.023438 168.351562 C 169.566406 168.402344 169.164062 168.101562 169.113281 167.644531 L 169.113281 167.59375 C 169.0625 167.136719 169.367188 166.734375 169.769531 166.683594 L 182.375 164.355469 C 182.878906 164.253906 183.234375 163.746094 183.132812 163.191406 C 183.03125 162.734375 182.574219 162.429688 182.070312 162.480469 L 169.417969 163.847656 C 168.960938 163.898438 168.554688 163.59375 168.503906 163.140625 L 168.503906 163.089844 C 168.453125 162.632812 168.757812 162.230469 169.164062 162.179688 L 181.714844 159.851562 C 182.222656 159.75 182.523438 159.292969 182.476562 158.789062 C 182.425781 158.28125 181.96875 157.925781 181.460938 157.976562 L 168.808594 159.34375 C 168.351562 159.394531 167.949219 159.089844 167.898438 158.636719 L 167.898438 158.585938 C 167.847656 158.128906 168.152344 157.722656 168.554688 157.671875 L 181.058594 155.34375 C 181.5625 155.246094 181.917969 154.738281 181.816406 154.179688 C 181.714844 153.726562 181.261719 153.421875 180.753906 153.472656 L 168.203125 154.839844 C 167.746094 154.890625 167.339844 154.585938 167.289062 154.128906 L 167.289062 154.082031 C 167.238281 153.625 167.542969 153.21875 167.949219 153.167969 L 180.398438 150.839844 C 180.90625 150.738281 181.261719 150.234375 181.160156 149.675781 C 181.058594 149.222656 180.601562 148.917969 180.097656 148.96875 L 167.59375 150.335938 C 167.140625 150.386719 166.734375 150.082031 166.683594 149.625 L 166.683594 149.574219 C 166.632812 149.121094 166.9375 148.714844 167.339844 148.664062 L 179.742188 146.335938 C 180.246094 146.234375 180.550781 145.78125 180.5 145.273438 C 180.449219 144.765625 179.996094 144.414062 179.488281 144.464844 L 166.988281 145.832031 C 166.53125 145.878906 166.125 145.578125 166.074219 145.121094 L 166.074219 145.070312 C 166.023438 144.617188 166.328125 144.210938 166.734375 144.160156 L 179.082031 141.882812 C 179.589844 141.78125 179.945312 141.273438 179.84375 140.71875 C 179.742188 140.261719 179.285156 139.960938 178.78125 140.007812 L 166.328125 141.324219 C 165.875 141.375 165.46875 141.074219 165.417969 140.617188 L 165.417969 140.566406 C 165.367188 140.109375 165.671875 139.707031 166.074219 139.65625 L 178.425781 137.429688 C 178.933594 137.328125 179.285156 136.820312 179.183594 136.265625 C 179.082031 135.808594 178.628906 135.503906 178.121094 135.554688 L 165.722656 136.871094 C 165.265625 136.921875 164.859375 136.617188 164.808594 136.164062 C 164.761719 135.707031 165.0625 135.300781 165.46875 135.25 L 177.769531 132.921875 C 178.273438 132.824219 178.578125 132.367188 178.527344 131.859375 C 178.476562 131.355469 178.019531 131 177.515625 131.050781 L 164.304688 132.417969 C 161.875 132.519531 160.101562 134.695312 160.457031 137.074219 Z M 166.125 173.363281 " fill-opacity="1" fill-rule="nonzero"/><path fill="#fffafa" d="M 193.304688 173.363281 L 199.9375 173.363281 C 199.480469 168.203125 200.289062 164.304688 208.035156 160.863281 L 214.261719 157.671875 C 214.664062 157.621094 214.917969 157.269531 214.917969 156.863281 C 214.867188 156.457031 214.511719 156.15625 214.109375 156.207031 L 194.773438 158.433594 C 194.519531 158.484375 194.316406 158.28125 194.316406 158.078125 C 194.265625 157.824219 194.46875 157.621094 194.671875 157.621094 L 214.511719 154.738281 C 214.664062 154.738281 214.765625 154.585938 214.765625 154.382812 C 214.765625 154.230469 214.613281 154.078125 214.410156 154.128906 L 194.519531 156.410156 C 194.269531 156.457031 194.066406 156.257812 194.066406 156.003906 C 194.015625 155.75 194.21875 155.546875 194.417969 155.546875 L 214.261719 152.664062 C 214.410156 152.664062 214.511719 152.511719 214.511719 152.308594 C 214.511719 152.15625 214.359375 152.003906 214.160156 152.054688 L 194.269531 154.332031 C 194.015625 154.382812 193.8125 154.179688 193.8125 153.929688 C 193.761719 153.675781 193.964844 153.472656 194.167969 153.472656 L 213.957031 150.585938 C 214.109375 150.585938 214.210938 150.4375 214.210938 150.234375 C 214.210938 150.03125 214.058594 149.929688 213.855469 149.980469 L 193.964844 152.257812 C 193.710938 152.308594 193.507812 152.105469 193.507812 151.851562 C 193.457031 151.601562 193.660156 151.398438 193.863281 151.398438 L 213.652344 148.511719 C 213.804688 148.511719 213.90625 148.359375 213.90625 148.160156 C 213.90625 148.007812 213.753906 147.855469 213.550781 147.90625 L 193.710938 150.183594 C 193.457031 150.234375 193.253906 150.03125 193.253906 149.777344 C 193.203125 149.523438 193.40625 149.324219 193.609375 149.324219 L 213.398438 146.4375 C 213.550781 146.4375 213.652344 146.285156 213.652344 146.082031 C 213.652344 145.929688 213.5 145.78125 213.296875 145.828125 L 193.457031 148.109375 C 193.203125 148.160156 193.003906 147.957031 193.003906 147.753906 C 192.953125 147.5 193.152344 147.296875 193.355469 147.296875 L 213.097656 144.464844 C 213.246094 144.464844 213.347656 144.3125 213.347656 144.109375 C 213.347656 143.957031 213.195312 143.804688 212.996094 143.855469 L 193.203125 146.132812 C 192.953125 146.183594 192.75 145.980469 192.75 145.78125 C 192.699219 145.527344 192.902344 145.324219 193.101562 145.324219 L 212.84375 142.488281 C 212.996094 142.488281 213.097656 142.335938 213.097656 142.136719 C 213.097656 141.984375 212.945312 141.832031 212.742188 141.882812 L 192.953125 144.160156 C 192.699219 144.210938 192.496094 144.007812 192.496094 143.804688 C 192.445312 143.550781 192.648438 143.351562 192.851562 143.351562 L 212.539062 140.515625 C 212.691406 140.515625 212.792969 140.363281 212.792969 140.160156 C 212.792969 140.007812 212.640625 139.859375 212.4375 139.910156 L 192.648438 142.1875 C 192.394531 142.238281 192.191406 142.035156 192.191406 141.832031 C 192.140625 141.578125 192.34375 141.375 192.546875 141.375 L 212.234375 138.542969 C 212.386719 138.542969 212.488281 138.390625 212.488281 138.1875 C 212.488281 138.035156 212.335938 137.882812 212.132812 137.933594 L 192.394531 140.210938 C 192.140625 140.261719 191.9375 140.058594 191.9375 139.859375 C 191.890625 139.605469 192.089844 139.402344 192.292969 139.402344 L 211.980469 136.566406 C 212.132812 136.566406 212.234375 136.414062 212.234375 136.214844 C 212.234375 136.0625 212.082031 135.910156 211.882812 135.960938 L 192.140625 138.238281 C 191.890625 138.289062 191.6875 138.085938 191.6875 137.882812 C 191.636719 137.628906 191.839844 137.429688 192.039062 137.429688 L 211.679688 134.59375 C 211.832031 134.59375 211.933594 134.441406 211.933594 134.238281 C 211.933594 134.035156 211.78125 133.9375 211.578125 133.988281 L 191.890625 136.265625 C 191.636719 136.316406 191.433594 136.113281 191.433594 135.910156 C 191.382812 135.65625 191.585938 135.453125 191.789062 135.453125 L 211.425781 132.621094 C 211.578125 132.621094 211.679688 132.46875 211.679688 132.265625 C 211.679688 132.113281 211.527344 131.960938 211.324219 132.011719 L 191.636719 134.289062 C 191.382812 134.339844 191.179688 134.136719 191.179688 133.9375 C 191.128906 133.683594 191.332031 133.480469 191.535156 133.480469 L 211.121094 130.644531 C 211.273438 130.644531 211.375 130.492188 211.375 130.292969 C 211.375 130.140625 211.222656 129.988281 211.019531 130.039062 L 191.332031 132.316406 C 191.078125 132.367188 190.875 132.164062 190.875 131.960938 C 190.824219 131.707031 191.027344 131.507812 191.230469 131.507812 L 210.816406 128.671875 C 210.96875 128.671875 211.070312 128.519531 211.070312 128.316406 C 211.070312 128.117188 210.917969 128.015625 210.71875 128.066406 L 191.078125 130.34375 C 190.824219 130.394531 190.625 130.191406 190.625 129.9375 C 190.574219 129.683594 190.773438 129.480469 190.976562 129.480469 L 210.566406 126.648438 C 210.71875 126.648438 210.816406 126.496094 210.816406 126.292969 C 210.816406 126.140625 210.667969 125.988281 210.464844 126.039062 L 190.824219 128.265625 C 190.574219 128.316406 190.371094 128.113281 190.371094 127.914062 C 190.320312 127.660156 190.523438 127.457031 190.726562 127.457031 L 210.261719 124.621094 C 210.414062 124.621094 210.515625 124.472656 210.515625 124.269531 C 210.515625 124.117188 210.363281 123.964844 210.160156 124.015625 L 190.574219 126.242188 C 190.320312 126.292969 190.117188 126.089844 190.117188 125.886719 C 190.066406 125.636719 190.269531 125.433594 190.472656 125.433594 L 210.007812 122.597656 C 210.160156 122.597656 210.261719 122.445312 210.261719 122.242188 C 210.261719 122.09375 210.109375 121.941406 209.90625 121.992188 L 190.320312 124.21875 C 190.066406 124.269531 189.863281 124.066406 189.863281 123.863281 C 189.8125 123.609375 190.015625 123.40625 190.21875 123.40625 L 209.703125 120.574219 C 209.855469 120.574219 209.957031 120.421875 209.957031 120.21875 C 209.957031 120.066406 209.804688 119.914062 209.601562 119.964844 L 190.015625 122.195312 C 189.761719 122.242188 189.558594 122.042969 189.558594 121.839844 C 189.511719 121.585938 189.710938 121.382812 189.914062 121.382812 L 209.402344 118.550781 C 209.554688 118.550781 209.652344 118.398438 209.652344 118.195312 C 209.652344 118.042969 209.503906 117.890625 209.300781 117.941406 L 189.761719 120.167969 C 189.511719 120.21875 189.308594 120.015625 189.308594 119.816406 C 189.257812 119.5625 189.460938 119.359375 189.660156 119.359375 L 209.148438 116.523438 C 209.300781 116.523438 209.402344 116.371094 209.402344 116.171875 C 209.402344 116.019531 209.25 115.867188 209.046875 115.917969 L 189.511719 118.144531 C 189.257812 118.195312 189.054688 117.992188 189.054688 117.789062 C 189.003906 117.535156 189.207031 117.335938 189.410156 117.335938 L 208.84375 114.5 C 208.996094 114.5 209.097656 114.347656 209.097656 114.144531 C 209.097656 113.992188 208.945312 113.84375 208.742188 113.894531 L 189.257812 116.121094 C 189.003906 116.171875 188.800781 115.96875 188.800781 115.765625 C 188.75 115.511719 188.953125 115.308594 189.15625 115.308594 L 208.589844 112.476562 C 208.742188 112.476562 208.84375 112.324219 208.84375 112.121094 C 208.84375 111.96875 208.691406 111.816406 208.488281 111.867188 L 189.003906 114.09375 C 188.75 114.144531 188.546875 113.945312 188.546875 113.742188 C 188.496094 113.488281 188.699219 113.285156 188.902344 113.285156 L 208.289062 110.449219 C 208.4375 110.449219 208.539062 110.300781 208.539062 110.097656 C 208.539062 109.945312 208.390625 109.792969 208.1875 109.84375 L 188.699219 112.070312 C 188.445312 112.121094 188.246094 111.917969 188.246094 111.714844 C 188.195312 111.464844 188.394531 111.261719 188.597656 111.261719 L 207.984375 108.476562 C 208.136719 108.476562 208.238281 108.324219 208.238281 108.121094 C 208.238281 107.972656 208.085938 107.820312 207.882812 107.871094 L 188.445312 110.097656 C 188.195312 110.148438 187.992188 109.945312 187.992188 109.691406 C 187.941406 109.4375 188.144531 109.238281 188.347656 109.238281 L 207.730469 106.453125 C 207.882812 106.453125 207.984375 106.300781 207.984375 106.097656 C 207.984375 105.945312 207.832031 105.792969 207.628906 105.84375 L 188.195312 108.074219 C 187.941406 108.121094 187.738281 107.921875 187.738281 107.667969 C 187.6875 107.414062 187.890625 107.210938 188.09375 107.210938 L 207.425781 104.429688 C 207.578125 104.429688 207.679688 104.277344 207.679688 104.074219 C 207.679688 103.921875 207.527344 103.769531 207.324219 103.820312 L 187.941406 106.046875 C 187.6875 106.097656 187.484375 105.894531 187.484375 105.644531 C 187.433594 105.390625 187.636719 105.1875 187.839844 105.1875 L 207.175781 102.402344 C 207.324219 102.402344 207.425781 102.25 207.425781 102.050781 C 207.425781 101.898438 207.273438 101.746094 207.074219 101.796875 L 187.6875 104.023438 C 187.433594 104.074219 187.230469 103.871094 187.230469 103.617188 C 187.183594 103.363281 187.382812 103.164062 187.585938 103.164062 L 206.871094 100.378906 C 207.023438 100.378906 207.125 100.226562 207.125 100.023438 C 207.125 99.871094 206.972656 99.722656 206.769531 99.773438 L 187.382812 102 C 187.132812 102.050781 186.929688 101.847656 186.929688 101.644531 C 186.878906 101.390625 187.082031 101.1875 187.28125 101.1875 L 206.566406 98.40625 C 206.71875 98.40625 206.820312 98.253906 206.820312 98.050781 C 206.820312 97.898438 206.667969 97.746094 206.464844 97.796875 L 187.132812 100.023438 C 186.878906 100.074219 186.675781 99.871094 186.675781 99.671875 C 186.625 99.417969 186.828125 99.214844 187.03125 99.214844 L 206.3125 96.429688 C 206.464844 96.429688 206.566406 96.28125 206.566406 96.078125 C 206.566406 95.925781 206.414062 95.773438 206.210938 95.824219 L 186.878906 98.050781 C 186.625 98.101562 186.421875 97.898438 186.421875 97.695312 C 186.371094 97.445312 186.574219 97.242188 186.777344 97.242188 L 206.011719 94.457031 C 206.160156 94.457031 206.261719 94.304688 206.261719 94.101562 C 206.261719 93.949219 206.109375 93.800781 205.910156 93.851562 L 186.625 96.078125 C 186.371094 96.128906 186.167969 95.925781 186.167969 95.722656 C 186.117188 95.46875 186.320312 95.265625 186.523438 95.265625 L 205.757812 92.484375 C 205.910156 92.484375 206.011719 92.332031 206.011719 92.128906 C 206.011719 91.976562 205.859375 91.824219 205.65625 91.875 L 186.371094 94.101562 C 186.117188 94.152344 185.917969 93.949219 185.917969 93.75 C 185.867188 93.496094 186.066406 93.292969 186.269531 93.292969 L 205.453125 90.507812 C 205.605469 90.507812 205.707031 90.359375 205.707031 90.15625 C 205.707031 89.953125 205.554688 89.851562 205.351562 89.902344 L 186.066406 92.128906 C 185.816406 92.179688 185.613281 91.976562 185.613281 91.773438 C 185.5625 91.523438 185.765625 91.320312 185.96875 91.320312 L 205.148438 88.535156 C 205.300781 88.535156 205.402344 88.382812 205.402344 88.179688 C 205.402344 88.03125 205.25 87.878906 205.046875 87.929688 L 185.816406 90.15625 C 185.5625 90.207031 185.359375 90.003906 185.359375 89.75 C 185.308594 89.496094 185.511719 89.292969 185.714844 89.292969 L 204.894531 86.511719 C 205.046875 86.511719 205.148438 86.359375 205.148438 86.15625 C 205.148438 86.003906 204.996094 85.851562 204.796875 85.902344 L 185.15625 88.179688 L 185.105469 87.726562 L 204.339844 85.042969 C 204.695312 84.992188 204.945312 84.636719 204.894531 84.285156 C 204.847656 83.929688 204.542969 83.625 204.136719 83.675781 L 184.753906 84.585938 C 182.171875 84.890625 180.398438 87.269531 180.703125 89.800781 Z M 193.304688 173.363281 " fill-opacity="1" fill-rule="nonzero"/><g clip-path="url(#051e7a81b4)"><path fill="#fffafa" d="M 275.554688 175.136719 L 111.007812 175.136719 C 110.046875 175.136719 109.238281 174.324219 109.238281 173.363281 C 109.238281 172.402344 110.046875 171.59375 111.007812 171.59375 L 275.554688 171.59375 C 276.515625 171.59375 277.324219 172.402344 277.324219 173.363281 C 277.324219 174.324219 276.566406 175.136719 275.554688 175.136719 Z M 275.554688 175.136719 " fill-opacity="1" fill-rule="nonzero"/></g><g fill="#fbb131" fill-opacity="1"><g transform="translate(17.140133, 238.29448)"><g><path d="M 20.40625 0.796875 C 14.789062 0.796875 10.550781 -0.285156 7.6875 -2.453125 C 4.832031 -4.628906 3.40625 -7.222656 3.40625 -10.234375 C 3.40625 -12.253906 4.015625 -13.765625 5.234375 -14.765625 C 6.453125 -15.773438 8.039062 -16.28125 10 -16.28125 C 10.050781 -10.507812 11.03125 -6.351562 12.9375 -3.8125 C 14.84375 -1.269531 17.625 0 21.28125 0 C 24.613281 0 27.320312 -0.953125 29.40625 -2.859375 C 31.5 -4.765625 32.546875 -7.570312 32.546875 -11.28125 C 32.546875 -13.707031 32.066406 -15.675781 31.109375 -17.1875 C 30.160156 -18.695312 28.707031 -20.046875 26.75 -21.234375 C 24.789062 -22.421875 22.253906 -23.734375 19.140625 -25.171875 C 16.546875 -26.328125 14.132812 -27.632812 11.90625 -29.09375 C 9.6875 -30.550781 7.898438 -32.335938 6.546875 -34.453125 C 5.203125 -36.566406 4.53125 -39.238281 4.53125 -42.46875 C 4.53125 -47.289062 6.113281 -51 9.28125 -53.59375 C 12.457031 -56.1875 16.773438 -57.484375 22.234375 -57.484375 C 26.992188 -57.484375 30.789062 -56.582031 33.625 -54.78125 C 36.457031 -52.976562 37.875 -50.832031 37.875 -48.34375 C 37.875 -46.707031 37.222656 -45.398438 35.921875 -44.421875 C 34.628906 -43.441406 32.867188 -42.953125 30.640625 -42.953125 C 30.640625 -47.503906 29.9375 -50.914062 28.53125 -53.1875 C 27.132812 -55.46875 24.796875 -56.609375 21.515625 -56.609375 C 18.710938 -56.609375 16.382812 -55.773438 14.53125 -54.109375 C 12.675781 -52.441406 11.75 -49.804688 11.75 -46.203125 C 11.75 -43.765625 12.210938 -41.753906 13.140625 -40.171875 C 14.066406 -38.585938 15.519531 -37.1875 17.5 -35.96875 C 19.488281 -34.75 22.019531 -33.453125 25.09375 -32.078125 C 28.050781 -30.804688 30.65625 -29.46875 32.90625 -28.0625 C 35.15625 -26.65625 36.914062 -24.945312 38.1875 -22.9375 C 39.457031 -20.925781 40.09375 -18.390625 40.09375 -15.328125 C 40.09375 -10.398438 38.382812 -6.476562 34.96875 -3.5625 C 31.550781 -0.65625 26.695312 0.796875 20.40625 0.796875 Z M 20.40625 0.796875 "/></g></g></g><g fill="#fbb131" fill-opacity="1"><g transform="translate(61.276754, 238.29448)"><g><path d="M 0.078125 0 L 0.078125 -0.796875 L 2.625 -0.796875 C 4.257812 -0.796875 5.550781 -1.242188 6.5 -2.140625 C 7.457031 -3.046875 8.332031 -4.632812 9.125 -6.90625 L 26.75 -56.6875 L 31.828125 -56.6875 L 51.125 -5.40625 C 51.8125 -3.65625 52.523438 -2.445312 53.265625 -1.78125 C 54.003906 -1.125 54.984375 -0.796875 56.203125 -0.796875 L 57 -0.796875 L 57 0 L 33.984375 0 L 33.984375 -0.796875 L 36.515625 -0.796875 C 38.316406 -0.796875 39.613281 -1.019531 40.40625 -1.46875 C 41.195312 -1.914062 41.59375 -2.722656 41.59375 -3.890625 C 41.59375 -4.316406 41.539062 -4.832031 41.4375 -5.4375 C 41.332031 -6.039062 41.148438 -6.71875 40.890625 -7.46875 L 36.125 -20.640625 L 14.921875 -20.640625 L 10.484375 -8.171875 C 10.210938 -7.378906 10 -6.675781 9.84375 -6.0625 C 9.6875 -5.457031 9.609375 -4.890625 9.609375 -4.359375 C 9.609375 -3.035156 10.148438 -2.109375 11.234375 -1.578125 C 12.316406 -1.054688 14.078125 -0.796875 16.515625 -0.796875 L 19.375 -0.796875 L 19.375 0 Z M 15.15625 -21.4375 L 35.8125 -21.4375 L 30.25 -36.671875 C 29.34375 -39.160156 28.46875 -41.660156 27.625 -44.171875 C 26.78125 -46.691406 26.09375 -49.007812 25.5625 -51.125 C 24.820312 -48.90625 24.09375 -46.789062 23.375 -44.78125 C 22.664062 -42.769531 21.859375 -40.46875 20.953125 -37.875 Z M 15.15625 -21.4375 "/></g></g></g><g fill="#fbb131" fill-opacity="1"><g transform="translate(118.273331, 238.29448)"><g><path d="M 2.78125 0 L 2.78125 -0.796875 L 4.453125 -0.796875 C 6.296875 -0.796875 7.734375 -1.21875 8.765625 -2.0625 C 9.804688 -2.90625 10.328125 -4.332031 10.328125 -6.34375 L 10.328125 -50.578125 C 10.328125 -52.484375 9.804688 -53.84375 8.765625 -54.65625 C 7.734375 -55.476562 6.296875 -55.890625 4.453125 -55.890625 L 2.78125 -55.890625 L 2.78125 -56.6875 L 27.078125 -56.6875 L 27.078125 -55.890625 L 25.40625 -55.890625 C 23.550781 -55.890625 22.117188 -55.460938 21.109375 -54.609375 C 20.109375 -53.765625 19.609375 -52.363281 19.609375 -50.40625 L 19.609375 -0.796875 L 33.421875 -0.796875 C 36.335938 -0.796875 38.664062 -1.21875 40.40625 -2.0625 C 42.15625 -2.90625 43.46875 -4.289062 44.34375 -6.21875 C 45.21875 -8.15625 45.757812 -10.816406 45.96875 -14.203125 L 46.203125 -17.234375 L 47 -17.234375 L 46.4375 0 Z M 2.78125 0 "/></g></g></g><g fill="#fbb131" fill-opacity="1"><g transform="translate(168.443021, 238.29448)"><g><path d="M 29.9375 0.796875 C 24.21875 0.796875 19.460938 -0.421875 15.671875 -2.859375 C 11.890625 -5.296875 9.070312 -8.707031 7.21875 -13.09375 C 5.375 -17.488281 4.453125 -22.625 4.453125 -28.5 C 4.453125 -34.375 5.390625 -39.476562 7.265625 -43.8125 C 9.140625 -48.15625 11.96875 -51.53125 15.75 -53.9375 C 19.539062 -56.351562 24.296875 -57.5625 30.015625 -57.5625 C 35.410156 -57.5625 40 -56.351562 43.78125 -53.9375 C 47.5625 -51.53125 50.445312 -48.144531 52.4375 -43.78125 C 54.425781 -39.414062 55.421875 -34.296875 55.421875 -28.421875 C 55.421875 -22.546875 54.425781 -17.425781 52.4375 -13.0625 C 50.445312 -8.695312 47.5625 -5.296875 43.78125 -2.859375 C 40 -0.421875 35.382812 0.796875 29.9375 0.796875 Z M 29.9375 0 C 35.332031 0 39.242188 -2.25 41.671875 -6.75 C 44.109375 -11.25 45.328125 -18.472656 45.328125 -28.421875 C 45.328125 -38.367188 44.109375 -45.578125 41.671875 -50.046875 C 39.242188 -54.523438 35.359375 -56.765625 30.015625 -56.765625 C 24.609375 -56.765625 20.660156 -54.523438 18.171875 -50.046875 C 15.691406 -45.578125 14.453125 -38.367188 14.453125 -28.421875 C 14.453125 -18.472656 15.679688 -11.25 18.140625 -6.75 C 20.597656 -2.25 24.53125 0 29.9375 0 Z M 29.9375 0 "/></g></g></g><g fill="#fbb131" fill-opacity="1"><g transform="translate(228.297363, 238.29448)"><g><path d="M 29.9375 0.796875 C 24.21875 0.796875 19.460938 -0.421875 15.671875 -2.859375 C 11.890625 -5.296875 9.070312 -8.707031 7.21875 -13.09375 C 5.375 -17.488281 4.453125 -22.625 4.453125 -28.5 C 4.453125 -34.375 5.390625 -39.476562 7.265625 -43.8125 C 9.140625 -48.15625 11.96875 -51.53125 15.75 -53.9375 C 19.539062 -56.351562 24.296875 -57.5625 30.015625 -57.5625 C 35.410156 -57.5625 40 -56.351562 43.78125 -53.9375 C 47.5625 -51.53125 50.445312 -48.144531 52.4375 -43.78125 C 54.425781 -39.414062 55.421875 -34.296875 55.421875 -28.421875 C 55.421875 -22.546875 54.425781 -17.425781 52.4375 -13.0625 C 50.445312 -8.695312 47.5625 -5.296875 43.78125 -2.859375 C 40 -0.421875 35.382812 0.796875 29.9375 0.796875 Z M 29.9375 0 C 35.332031 0 39.242188 -2.25 41.671875 -6.75 C 44.109375 -11.25 45.328125 -18.472656 45.328125 -28.421875 C 45.328125 -38.367188 44.109375 -45.578125 41.671875 -50.046875 C 39.242188 -54.523438 35.359375 -56.765625 30.015625 -56.765625 C 24.609375 -56.765625 20.660156 -54.523438 18.171875 -50.046875 C 15.691406 -45.578125 14.453125 -38.367188 14.453125 -28.421875 C 14.453125 -18.472656 15.679688 -11.25 18.140625 -6.75 C 20.597656 -2.25 24.53125 0 29.9375 0 Z M 29.9375 0 "/></g></g></g><g fill="#fbb131" fill-opacity="1"><g transform="translate(288.151706, 238.29448)"><g><path d="M 2.78125 0 L 2.78125 -0.796875 L 5.796875 -0.796875 C 7.648438 -0.796875 9.09375 -1.21875 10.125 -2.0625 C 11.15625 -2.90625 11.671875 -4.332031 11.671875 -6.34375 L 11.671875 -50.65625 C 11.671875 -52.507812 11.15625 -53.84375 10.125 -54.65625 C 9.09375 -55.476562 7.648438 -55.890625 5.796875 -55.890625 L 2.78125 -55.890625 L 2.78125 -56.6875 L 19.609375 -56.6875 L 49.21875 -12.0625 L 49.21875 -50.40625 C 49.21875 -52.363281 48.710938 -53.765625 47.703125 -54.609375 C 46.703125 -55.460938 45.273438 -55.890625 43.421875 -55.890625 L 40.171875 -55.890625 L 40.171875 -56.6875 L 59.140625 -56.6875 L 59.140625 -55.890625 L 55.890625 -55.890625 C 54.035156 -55.890625 52.59375 -55.460938 51.5625 -54.609375 C 50.53125 -53.765625 50.015625 -52.335938 50.015625 -50.328125 L 50.015625 0 L 47 0 L 12.46875 -52 L 12.46875 -6.34375 C 12.46875 -4.332031 12.96875 -2.90625 13.96875 -2.0625 C 14.976562 -1.21875 16.410156 -0.796875 18.265625 -0.796875 L 21.828125 -0.796875 L 21.828125 0 Z M 2.78125 0 "/></g></g></g><g fill="#fffafa" fill-opacity="1"><g transform="translate(97.444862, 299.168212)"><g><path d="M 7.5 0 L 3.890625 0 L 3.890625 -31.84375 L 18.234375 -31.84375 C 21.597656 -31.84375 24.273438 -30.910156 26.265625 -29.046875 C 28.210938 -27.191406 29.1875 -24.707031 29.1875 -21.59375 C 29.1875 -18.445312 28.203125 -15.953125 26.234375 -14.109375 C 24.265625 -12.265625 21.597656 -11.34375 18.234375 -11.34375 L 7.5 -11.34375 Z M 7.5 -28.421875 L 7.5 -14.71875 L 17.984375 -14.71875 C 20.484375 -14.71875 22.375 -15.328125 23.65625 -16.546875 C 24.9375 -17.765625 25.578125 -19.4375 25.578125 -21.5625 C 25.578125 -23.695312 24.9375 -25.375 23.65625 -26.59375 C 22.375 -27.8125 20.484375 -28.421875 17.984375 -28.421875 Z M 7.5 -28.421875 "/></g></g></g><g fill="#fffafa" fill-opacity="1"><g transform="translate(164.592173, 299.168212)"><g><path d="M 7.5 0 L 3.890625 0 L 3.890625 -31.84375 L 19.140625 -31.84375 C 22.378906 -31.84375 24.976562 -30.941406 26.9375 -29.140625 C 28.882812 -27.378906 29.859375 -24.957031 29.859375 -21.875 C 29.859375 -17.90625 28.207031 -15.195312 24.90625 -13.75 C 23.976562 -13.332031 23.066406 -13.03125 22.171875 -12.84375 L 30.546875 0 L 26.265625 0 L 18.5625 -12.21875 L 7.5 -12.21875 Z M 7.5 -15.625 L 18.515625 -15.625 C 21.910156 -15.625 24.25 -16.679688 25.53125 -18.796875 C 26.019531 -19.597656 26.265625 -20.625 26.265625 -21.875 C 26.265625 -23.894531 25.570312 -25.488281 24.1875 -26.65625 C 22.8125 -27.832031 20.984375 -28.421875 18.703125 -28.421875 L 7.5 -28.421875 Z M 7.5 -15.625 "/></g></g></g><g fill="#fffafa" fill-opacity="1"><g transform="translate(233.711336, 299.168212)"><g><path d="M 18.03125 -32.21875 C 22.78125 -32.21875 26.675781 -30.632812 29.71875 -27.46875 C 32.695312 -24.382812 34.1875 -20.535156 34.1875 -15.921875 C 34.1875 -11.304688 32.695312 -7.457031 29.71875 -4.375 C 26.675781 -1.195312 22.78125 0.390625 18.03125 0.390625 C 13.289062 0.390625 9.394531 -1.195312 6.34375 -4.375 C 3.363281 -7.457031 1.875 -11.304688 1.875 -15.921875 C 1.875 -20.535156 3.363281 -24.382812 6.34375 -27.46875 C 9.394531 -30.632812 13.289062 -32.21875 18.03125 -32.21875 Z M 18.03125 -3.125 C 21.8125 -3.125 24.875 -4.359375 27.21875 -6.828125 C 29.46875 -9.203125 30.59375 -12.234375 30.59375 -15.921875 C 30.59375 -19.609375 29.46875 -22.640625 27.21875 -25.015625 C 24.875 -27.484375 21.8125 -28.71875 18.03125 -28.71875 C 14.25 -28.71875 11.1875 -27.484375 8.84375 -25.015625 C 6.601562 -22.640625 5.484375 -19.609375 5.484375 -15.921875 C 5.484375 -12.234375 6.601562 -9.203125 8.84375 -6.828125 C 11.1875 -4.359375 14.25 -3.125 18.03125 -3.125 Z M 18.03125 -3.125 "/></g></g></g></svg>