<svg xmlns="http://www.w3.org/2000/svg" xmlns:xlink="http://www.w3.org/1999/xlink" width="500" zoomAndPan="magnify" viewBox="0 0 375 374.999991" height="500" preserveAspectRatio="xMidYMid meet" version="1.0"><defs><g/><clipPath id="0c2bd429c8"><path d="M 128.351562 141 L 154 141 L 154 170 L 128.351562 170 Z M 128.351562 141 " clip-rule="nonzero"/></clipPath><clipPath id="04c5886efe"><path d="M 133 178 L 232 178 L 232 180.917969 L 133 180.917969 Z M 133 178 " clip-rule="nonzero"/></clipPath></defs><g clip-path="url(#0c2bd429c8)"><path fill="#fffafa" d="M 153.671875 163.230469 C 152.816406 162.554688 151.964844 161.878906 151.257812 161.203125 C 149.730469 159.730469 149.113281 157.585938 149.4375 155.46875 C 149.640625 154.144531 149.640625 152.820312 149.4375 151.46875 C 149.082031 148.851562 148.082031 146.265625 146.320312 144.234375 C 144.464844 142.117188 141.730469 141.207031 138.851562 142 C 138.203125 142.175781 137.585938 142.472656 137.085938 142.824219 C 135.878906 143.648438 134.410156 143.972656 132.96875 143.707031 C 128.558594 142.941406 128.410156 146.117188 129.527344 146.148438 C 130.882812 146.175781 134.234375 145.824219 134.410156 148.585938 C 134.351562 149.910156 134.558594 151.382812 134.96875 152.941406 C 135.203125 153.820312 135.527344 154.675781 135.96875 155.46875 C 136.878906 157.203125 137.851562 158.171875 139.496094 159.230469 C 141.113281 160.261719 143.085938 160.910156 145.4375 160.496094 C 145.613281 160.46875 146.40625 160.351562 146.582031 160.554688 C 146.640625 160.613281 150.113281 164.761719 150.113281 164.761719 C 150.757812 165.464844 151.375 167.40625 151.875 169.199219 C 152.171875 167.640625 152.730469 165.964844 153.316406 164.347656 C 153.433594 163.964844 153.554688 163.613281 153.671875 163.230469 Z M 138.054688 153.203125 C 136.410156 149.882812 136.9375 146.292969 139.203125 145.175781 C 141.46875 144.058594 144.644531 145.824219 146.289062 149.144531 C 147.9375 152.46875 147.40625 156.054688 145.144531 157.175781 C 142.878906 158.261719 139.703125 156.496094 138.054688 153.203125 Z M 138.054688 153.203125 " fill-opacity="1" fill-rule="nonzero"/></g><path fill="#fffafa" d="M 151.257812 150.792969 C 151.90625 152 152.671875 153.085938 153.613281 154.027344 C 155.109375 155.558594 155.847656 157.644531 155.464844 159.730469 C 154.933594 162.761719 153.171875 166.320312 152.640625 169.347656 C 152.464844 170.316406 152.554688 171.316406 152.90625 172.257812 L 156.023438 179.964844 L 163.257812 179.964844 L 160.667969 169.464844 C 160.226562 167.90625 158.257812 163.496094 158.464844 161.910156 C 158.464844 161.910156 158.84375 156.527344 158.875 156.4375 C 158.90625 156.175781 159.609375 155.820312 159.785156 155.734375 C 161.902344 154.675781 163.140625 153 163.875 151.234375 C 164.609375 149.410156 164.816406 148.058594 164.550781 146.117188 C 164.433594 145.234375 164.199219 144.351562 163.902344 143.5 C 161.875 138.089844 158.050781 135.503906 154.347656 136.882812 C 151.523438 137.941406 149.847656 140.265625 149.582031 143.089844 C 148.964844 143.589844 148.582031 143.558594 148.730469 145.472656 C 148.789062 146.148438 149.496094 146.675781 149.847656 146.882812 C 150.082031 148.265625 150.582031 149.558594 151.257812 150.792969 Z M 156.464844 169.230469 C 155.992188 169.378906 155.464844 169.113281 155.289062 168.640625 C 155.140625 168.171875 155.40625 167.640625 155.875 167.464844 C 156.347656 167.320312 156.875 167.582031 157.050781 168.054688 C 157.226562 168.523438 156.933594 169.054688 156.464844 169.230469 Z M 155.847656 139.679688 C 158.347656 139.265625 160.875 141.882812 161.492188 145.53125 C 162.109375 149.175781 160.550781 152.46875 158.050781 152.878906 C 155.550781 153.292969 153.023438 150.675781 152.40625 147.027344 C 151.789062 143.382812 153.347656 140.117188 155.847656 139.679688 Z M 155.847656 139.679688 " fill-opacity="1" fill-rule="nonzero"/><path fill="#fffafa" d="M 213.449219 151 C 212.570312 155.203125 213.273438 159.878906 210.421875 163.4375 C 208.335938 166.054688 204.894531 167.964844 201.925781 169.257812 C 202.1875 169.730469 202.453125 170.140625 202.660156 170.464844 C 203.277344 171.464844 203.542969 172.613281 203.425781 173.789062 C 206.160156 168.757812 209.597656 168.082031 211.15625 168.054688 C 211.597656 168.054688 212.011719 167.761719 212.128906 167.320312 C 213.070312 163.585938 217.246094 160.878906 221.039062 160.289062 C 227.066406 159.351562 233.359375 152.585938 229.125 146.53125 C 225.625 141.558594 218.039062 142.914062 214.890625 147.441406 C 214.214844 147.5 212.949219 147.707031 212.421875 148.527344 C 211.6875 149.675781 213.449219 151 213.449219 151 Z M 219.480469 147.941406 C 222.183594 146.058594 225.59375 146.324219 227.09375 148.5 C 228.59375 150.675781 227.652344 153.96875 224.949219 155.820312 C 222.242188 157.703125 218.832031 157.4375 217.332031 155.261719 C 215.804688 153.085938 216.773438 149.824219 219.480469 147.941406 Z M 219.480469 147.941406 " fill-opacity="1" fill-rule="nonzero"/><path fill="#fffafa" d="M 193.808594 179.992188 L 201.1875 179.992188 L 203.277344 176.492188 C 203.894531 175.492188 204.042969 174.257812 203.71875 173.140625 C 202.804688 170.082031 201.277344 163.585938 202.746094 158.761719 C 204.246094 153.878906 209.394531 151.882812 212.332031 148.058594 C 215.746094 143.617188 213.804688 136.179688 208.65625 134.265625 C 208.304688 130.738281 203.570312 126.917969 202.367188 127.476562 C 201.335938 127.945312 205.511719 130.738281 205.394531 133.828125 C 198.628906 134.328125 196.808594 142.914062 199.367188 148.207031 C 201.011719 151.675781 201.128906 156.644531 198.570312 159.527344 C 198.277344 159.878906 198.25 160.378906 198.511719 160.761719 C 199.394531 162.085938 200.835938 165.496094 197.867188 170.875 C 196.953125 172.523438 195.484375 175.875 193.808594 179.992188 Z M 205.660156 136.53125 C 208.304688 136.5625 210.453125 139.238281 210.421875 142.5 C 210.394531 145.792969 208.21875 148.441406 205.570312 148.410156 C 202.925781 148.382812 200.777344 145.707031 200.808594 142.441406 C 200.835938 139.179688 203.011719 136.53125 205.660156 136.53125 Z M 198.835938 174.875 C 199.25 174.433594 199.953125 174.40625 200.394531 174.816406 C 200.835938 175.230469 200.867188 175.933594 200.453125 176.375 C 200.042969 176.816406 199.335938 176.847656 198.894531 176.433594 C 198.453125 176.023438 198.425781 175.347656 198.835938 174.875 Z M 198.835938 174.875 " fill-opacity="1" fill-rule="nonzero"/><path fill="#fffafa" d="M 166.902344 179.992188 L 177.136719 179.992188 C 177.398438 179.933594 177.578125 179.667969 177.546875 179.375 C 177.519531 179.082031 177.253906 178.875 176.960938 178.90625 L 169.550781 179.699219 C 169.285156 179.726562 169.050781 179.550781 169.019531 179.285156 L 169.019531 179.257812 C 168.992188 178.992188 169.167969 178.757812 169.402344 178.726562 L 176.722656 177.375 C 177.019531 177.316406 177.222656 177.023438 177.164062 176.699219 C 177.105469 176.433594 176.839844 176.257812 176.546875 176.289062 L 169.167969 177.082031 C 168.902344 177.109375 168.667969 176.933594 168.636719 176.667969 L 168.636719 176.640625 C 168.609375 176.375 168.785156 176.140625 169.019531 176.109375 L 176.339844 174.757812 C 176.636719 174.699219 176.839844 174.40625 176.78125 174.082031 C 176.722656 173.816406 176.460938 173.640625 176.164062 173.671875 L 168.8125 174.464844 C 168.550781 174.492188 168.3125 174.316406 168.285156 174.050781 L 168.285156 174.023438 C 168.253906 173.757812 168.433594 173.523438 168.667969 173.492188 L 175.960938 172.140625 C 176.253906 172.082031 176.429688 171.816406 176.402344 171.523438 C 176.371094 171.230469 176.105469 171.023438 175.8125 171.054688 L 168.460938 171.847656 C 168.195312 171.875 167.960938 171.699219 167.933594 171.433594 L 167.933594 171.40625 C 167.902344 171.140625 168.078125 170.90625 168.3125 170.875 L 175.578125 169.523438 C 175.871094 169.464844 176.078125 169.171875 176.019531 168.847656 C 175.960938 168.582031 175.695312 168.40625 175.402344 168.4375 L 168.109375 169.230469 C 167.84375 169.257812 167.609375 169.082031 167.578125 168.820312 L 167.578125 168.789062 C 167.550781 168.523438 167.726562 168.289062 167.960938 168.261719 L 175.195312 166.90625 C 175.488281 166.847656 175.695312 166.554688 175.636719 166.230469 C 175.578125 165.964844 175.3125 165.789062 175.019531 165.820312 L 167.753906 166.613281 C 167.492188 166.640625 167.253906 166.464844 167.226562 166.203125 L 167.226562 166.171875 C 167.195312 165.90625 167.375 165.671875 167.609375 165.644531 L 174.8125 164.289062 C 175.105469 164.230469 175.28125 163.964844 175.253906 163.671875 C 175.222656 163.378906 174.960938 163.171875 174.664062 163.203125 L 167.402344 163.996094 C 167.136719 164.027344 166.902344 163.847656 166.875 163.585938 L 166.875 163.554688 C 166.84375 163.289062 167.019531 163.054688 167.253906 163.027344 L 174.429688 161.703125 C 174.722656 161.644531 174.929688 161.347656 174.871094 161.027344 C 174.8125 160.761719 174.546875 160.585938 174.253906 160.613281 L 167.019531 161.378906 C 166.753906 161.410156 166.519531 161.230469 166.492188 160.96875 L 166.492188 160.9375 C 166.460938 160.671875 166.636719 160.4375 166.875 160.410156 L 174.046875 159.113281 C 174.34375 159.054688 174.546875 158.761719 174.488281 158.4375 C 174.429688 158.171875 174.164062 157.996094 173.871094 158.027344 L 166.667969 158.792969 C 166.402344 158.820312 166.167969 158.644531 166.136719 158.378906 C 166.109375 158.113281 166.285156 157.878906 166.519531 157.851562 L 173.664062 156.496094 C 173.960938 156.4375 174.136719 156.175781 174.105469 155.878906 C 174.078125 155.585938 173.8125 155.378906 173.519531 155.410156 L 165.84375 156.203125 C 164.433594 156.261719 163.402344 157.527344 163.609375 158.910156 Z M 166.902344 179.992188 " fill-opacity="1" fill-rule="nonzero"/><path fill="#fffafa" d="M 182.691406 179.992188 L 186.546875 179.992188 C 186.28125 176.992188 186.75 174.730469 191.25 172.730469 L 194.867188 170.875 C 195.101562 170.847656 195.25 170.640625 195.25 170.40625 C 195.21875 170.171875 195.015625 169.996094 194.777344 170.023438 L 183.546875 171.316406 C 183.398438 171.347656 183.28125 171.230469 183.28125 171.113281 C 183.25 170.964844 183.371094 170.847656 183.488281 170.847656 L 195.015625 169.171875 C 195.101562 169.171875 195.160156 169.082031 195.160156 168.964844 C 195.160156 168.878906 195.074219 168.789062 194.957031 168.820312 L 183.398438 170.140625 C 183.25 170.171875 183.132812 170.054688 183.132812 169.90625 C 183.105469 169.757812 183.222656 169.640625 183.339844 169.640625 L 194.867188 167.964844 C 194.957031 167.964844 195.015625 167.878906 195.015625 167.761719 C 195.015625 167.671875 194.925781 167.582031 194.808594 167.613281 L 183.253906 168.9375 C 183.105469 168.964844 182.988281 168.847656 182.988281 168.699219 C 182.957031 168.554688 183.074219 168.4375 183.191406 168.4375 L 194.691406 166.761719 C 194.777344 166.761719 194.835938 166.671875 194.835938 166.554688 C 194.835938 166.4375 194.75 166.378906 194.632812 166.40625 L 183.074219 167.730469 C 182.929688 167.761719 182.8125 167.640625 182.8125 167.496094 C 182.78125 167.347656 182.898438 167.230469 183.015625 167.230469 L 194.515625 165.554688 C 194.601562 165.554688 194.660156 165.464844 194.660156 165.347656 C 194.660156 165.261719 194.574219 165.171875 194.457031 165.203125 L 182.929688 166.523438 C 182.78125 166.554688 182.664062 166.4375 182.664062 166.289062 C 182.632812 166.140625 182.753906 166.023438 182.871094 166.023438 L 194.367188 164.347656 C 194.457031 164.347656 194.515625 164.261719 194.515625 164.144531 C 194.515625 164.054688 194.425781 163.964844 194.308594 163.996094 L 182.78125 165.320312 C 182.632812 165.347656 182.515625 165.230469 182.515625 165.113281 C 182.488281 164.964844 182.605469 164.847656 182.722656 164.847656 L 194.191406 163.203125 C 194.277344 163.203125 194.335938 163.113281 194.335938 162.996094 C 194.335938 162.90625 194.25 162.820312 194.132812 162.847656 L 182.632812 164.171875 C 182.488281 164.203125 182.371094 164.085938 182.371094 163.964844 C 182.339844 163.820312 182.457031 163.703125 182.574219 163.703125 L 194.042969 162.054688 C 194.132812 162.054688 194.191406 161.96875 194.191406 161.847656 C 194.191406 161.761719 194.101562 161.671875 193.984375 161.703125 L 182.488281 163.027344 C 182.339844 163.054688 182.222656 162.9375 182.222656 162.820312 C 182.195312 162.671875 182.3125 162.554688 182.429688 162.554688 L 193.867188 160.910156 C 193.957031 160.910156 194.015625 160.820312 194.015625 160.703125 C 194.015625 160.613281 193.925781 160.527344 193.808594 160.554688 L 182.3125 161.878906 C 182.164062 161.90625 182.046875 161.789062 182.046875 161.671875 C 182.015625 161.527344 182.132812 161.410156 182.253906 161.410156 L 193.691406 159.761719 C 193.777344 159.761719 193.835938 159.671875 193.835938 159.554688 C 193.835938 159.46875 193.75 159.378906 193.632812 159.410156 L 182.164062 160.730469 C 182.015625 160.761719 181.898438 160.644531 181.898438 160.527344 C 181.871094 160.378906 181.988281 160.261719 182.105469 160.261719 L 193.542969 158.613281 C 193.632812 158.613281 193.691406 158.527344 193.691406 158.410156 C 193.691406 158.320312 193.601562 158.234375 193.484375 158.261719 L 182.015625 159.585938 C 181.871094 159.613281 181.753906 159.496094 181.753906 159.378906 C 181.722656 159.230469 181.839844 159.113281 181.957031 159.113281 L 193.367188 157.46875 C 193.457031 157.46875 193.515625 157.378906 193.515625 157.261719 C 193.515625 157.144531 193.425781 157.085938 193.308594 157.113281 L 181.871094 158.4375 C 181.722656 158.46875 181.605469 158.351562 181.605469 158.234375 C 181.574219 158.085938 181.695312 157.96875 181.8125 157.96875 L 193.21875 156.320312 C 193.308594 156.320312 193.367188 156.234375 193.367188 156.117188 C 193.367188 156.027344 193.277344 155.9375 193.160156 155.96875 L 181.722656 157.292969 C 181.574219 157.320312 181.457031 157.203125 181.457031 157.085938 C 181.429688 156.9375 181.546875 156.820312 181.664062 156.820312 L 193.042969 155.175781 C 193.132812 155.175781 193.191406 155.085938 193.191406 154.96875 C 193.191406 154.878906 193.101562 154.792969 192.984375 154.820312 L 181.546875 156.144531 C 181.398438 156.175781 181.28125 156.054688 181.28125 155.9375 C 181.253906 155.792969 181.371094 155.675781 181.488281 155.675781 L 192.867188 154.027344 C 192.957031 154.027344 193.015625 153.9375 193.015625 153.820312 C 193.015625 153.703125 192.925781 153.644531 192.808594 153.675781 L 181.398438 154.996094 C 181.253906 155.027344 181.136719 154.910156 181.136719 154.761719 C 181.105469 154.617188 181.222656 154.5 181.339844 154.5 L 192.71875 152.851562 C 192.808594 152.851562 192.867188 152.761719 192.867188 152.644531 C 192.867188 152.558594 192.777344 152.46875 192.660156 152.5 L 181.253906 153.792969 C 181.105469 153.820312 180.988281 153.703125 180.988281 153.585938 C 180.957031 153.441406 181.074219 153.320312 181.195312 153.320312 L 192.542969 151.675781 C 192.632812 151.675781 192.691406 151.585938 192.691406 151.46875 C 192.691406 151.382812 192.601562 151.292969 192.484375 151.324219 L 181.105469 152.617188 C 180.957031 152.644531 180.839844 152.527344 180.839844 152.410156 C 180.8125 152.261719 180.929688 152.144531 181.046875 152.144531 L 192.398438 150.5 C 192.484375 150.5 192.542969 150.410156 192.542969 150.292969 C 192.542969 150.203125 192.457031 150.117188 192.339844 150.144531 L 180.957031 151.441406 C 180.8125 151.46875 180.695312 151.351562 180.695312 151.234375 C 180.664062 151.085938 180.78125 150.96875 180.898438 150.96875 L 192.21875 149.324219 C 192.308594 149.324219 192.367188 149.234375 192.367188 149.117188 C 192.367188 149.027344 192.28125 148.941406 192.160156 148.96875 L 180.78125 150.265625 C 180.636719 150.292969 180.515625 150.175781 180.515625 150.058594 C 180.488281 149.910156 180.605469 149.792969 180.722656 149.792969 L 192.042969 148.148438 C 192.132812 148.148438 192.191406 148.058594 192.191406 147.941406 C 192.191406 147.851562 192.101562 147.765625 191.984375 147.792969 L 180.636719 149.085938 C 180.488281 149.117188 180.371094 149 180.371094 148.882812 C 180.339844 148.734375 180.457031 148.617188 180.574219 148.617188 L 191.898438 146.96875 C 191.984375 146.96875 192.042969 146.882812 192.042969 146.765625 C 192.042969 146.675781 191.957031 146.589844 191.839844 146.617188 L 180.488281 147.910156 C 180.339844 147.941406 180.222656 147.824219 180.222656 147.707031 C 180.195312 147.558594 180.3125 147.441406 180.429688 147.441406 L 191.71875 145.792969 C 191.808594 145.792969 191.867188 145.707031 191.867188 145.589844 C 191.867188 145.5 191.78125 145.410156 191.660156 145.441406 L 180.339844 146.734375 C 180.195312 146.765625 180.078125 146.648438 180.078125 146.527344 C 180.046875 146.382812 180.164062 146.265625 180.28125 146.265625 L 191.574219 144.617188 C 191.660156 144.617188 191.71875 144.53125 191.71875 144.410156 C 191.71875 144.324219 191.632812 144.234375 191.515625 144.265625 L 180.195312 145.558594 C 180.046875 145.589844 179.929688 145.46875 179.929688 145.351562 C 179.898438 145.207031 180.015625 145.089844 180.136719 145.089844 L 191.398438 143.441406 C 191.484375 143.441406 191.542969 143.351562 191.542969 143.234375 C 191.542969 143.148438 191.457031 143.058594 191.339844 143.089844 L 180.015625 144.382812 C 179.871094 144.410156 179.753906 144.292969 179.753906 144.175781 C 179.722656 144.03125 179.839844 143.914062 179.957031 143.914062 L 191.222656 142.292969 C 191.308594 142.292969 191.367188 142.207031 191.367188 142.089844 C 191.367188 142 191.28125 141.914062 191.160156 141.941406 L 179.871094 143.234375 C 179.722656 143.265625 179.605469 143.148438 179.605469 143 C 179.578125 142.855469 179.695312 142.734375 179.8125 142.734375 L 191.074219 141.117188 C 191.160156 141.117188 191.222656 141.03125 191.222656 140.914062 C 191.222656 140.824219 191.132812 140.738281 191.015625 140.765625 L 179.722656 142.058594 C 179.578125 142.089844 179.457031 141.972656 179.457031 141.824219 C 179.429688 141.675781 179.546875 141.558594 179.664062 141.558594 L 190.898438 139.941406 C 190.984375 139.941406 191.042969 139.855469 191.042969 139.738281 C 191.042969 139.648438 190.957031 139.558594 190.839844 139.589844 L 179.578125 140.882812 C 179.429688 140.914062 179.3125 140.796875 179.3125 140.648438 C 179.28125 140.5 179.398438 140.382812 179.515625 140.382812 L 190.75 138.765625 C 190.839844 138.765625 190.898438 138.679688 190.898438 138.558594 C 190.898438 138.472656 190.808594 138.382812 190.691406 138.414062 L 179.429688 139.707031 C 179.28125 139.738281 179.164062 139.617188 179.164062 139.472656 C 179.136719 139.324219 179.253906 139.207031 179.371094 139.207031 L 190.574219 137.589844 C 190.660156 137.589844 190.722656 137.5 190.722656 137.382812 C 190.722656 137.296875 190.632812 137.207031 190.515625 137.238281 L 179.253906 138.53125 C 179.105469 138.558594 178.988281 138.441406 178.988281 138.324219 C 178.957031 138.179688 179.078125 138.0625 179.195312 138.0625 L 190.398438 136.441406 C 190.484375 136.441406 190.542969 136.355469 190.542969 136.238281 C 190.542969 136.148438 190.457031 136.0625 190.339844 136.089844 L 179.105469 137.382812 C 178.957031 137.414062 178.839844 137.296875 178.839844 137.179688 C 178.8125 137.03125 178.929688 136.914062 179.046875 136.914062 L 190.25 135.296875 C 190.339844 135.296875 190.398438 135.207031 190.398438 135.089844 C 190.398438 135.003906 190.308594 134.914062 190.191406 134.945312 L 178.957031 136.238281 C 178.8125 136.265625 178.695312 136.148438 178.695312 136.03125 C 178.664062 135.882812 178.78125 135.765625 178.898438 135.765625 L 190.074219 134.148438 C 190.164062 134.148438 190.222656 134.0625 190.222656 133.945312 C 190.222656 133.855469 190.132812 133.765625 190.015625 133.796875 L 178.8125 135.089844 C 178.664062 135.121094 178.546875 135.003906 178.546875 134.886719 C 178.519531 134.738281 178.636719 134.621094 178.753906 134.621094 L 189.925781 133.003906 C 190.015625 133.003906 190.074219 132.914062 190.074219 132.796875 C 190.074219 132.707031 189.984375 132.621094 189.867188 132.648438 L 178.664062 133.945312 C 178.519531 133.972656 178.398438 133.855469 178.398438 133.738281 C 178.371094 133.589844 178.488281 133.472656 178.605469 133.472656 L 189.75 131.855469 C 189.839844 131.855469 189.898438 131.769531 189.898438 131.648438 C 189.898438 131.53125 189.808594 131.472656 189.691406 131.503906 L 178.488281 132.796875 C 178.339844 132.828125 178.222656 132.707031 178.222656 132.589844 C 178.195312 132.445312 178.3125 132.328125 178.429688 132.328125 L 189.574219 130.710938 C 189.664062 130.710938 189.722656 130.621094 189.722656 130.503906 C 189.722656 130.414062 189.632812 130.328125 189.515625 130.355469 L 178.339844 131.648438 C 178.195312 131.679688 178.078125 131.5625 178.078125 131.414062 C 178.046875 131.269531 178.164062 131.148438 178.28125 131.148438 L 189.425781 129.53125 C 189.515625 129.53125 189.574219 129.445312 189.574219 129.328125 C 189.574219 129.238281 189.484375 129.152344 189.367188 129.179688 L 177.960938 130.503906 L 177.929688 130.238281 L 189.105469 128.679688 C 189.308594 128.652344 189.457031 128.445312 189.425781 128.238281 C 189.398438 128.035156 189.222656 127.855469 188.984375 127.886719 L 177.722656 128.414062 C 176.222656 128.59375 175.195312 129.972656 175.371094 131.445312 Z M 182.691406 179.992188 " fill-opacity="1" fill-rule="nonzero"/><g clip-path="url(#04c5886efe)"><path fill="#fffafa" d="M 230.476562 181.023438 L 134.878906 181.023438 C 134.320312 181.023438 133.851562 180.550781 133.851562 179.992188 C 133.851562 179.433594 134.320312 178.964844 134.878906 178.964844 L 230.476562 178.964844 C 231.035156 178.964844 231.503906 179.433594 231.503906 179.992188 C 231.503906 180.550781 231.066406 181.023438 230.476562 181.023438 Z M 230.476562 181.023438 " fill-opacity="1" fill-rule="nonzero"/></g><g fill="#fbb131" fill-opacity="1"><g transform="translate(73.957031, 221.726733)"><g><path d="M 13.953125 0.546875 C 10.117188 0.546875 7.222656 -0.191406 5.265625 -1.671875 C 3.304688 -3.160156 2.328125 -4.9375 2.328125 -7 C 2.328125 -8.375 2.742188 -9.40625 3.578125 -10.09375 C 4.410156 -10.78125 5.5 -11.125 6.84375 -11.125 C 6.875 -7.1875 7.539062 -4.347656 8.84375 -2.609375 C 10.144531 -0.867188 12.046875 0 14.546875 0 C 16.828125 0 18.679688 -0.648438 20.109375 -1.953125 C 21.535156 -3.253906 22.25 -5.171875 22.25 -7.703125 C 22.25 -9.367188 21.921875 -10.71875 21.265625 -11.75 C 20.617188 -12.78125 19.625 -13.703125 18.28125 -14.515625 C 16.945312 -15.328125 15.210938 -16.222656 13.078125 -17.203125 C 11.304688 -18.003906 9.660156 -18.898438 8.140625 -19.890625 C 6.617188 -20.890625 5.394531 -22.113281 4.46875 -23.5625 C 3.550781 -25.007812 3.09375 -26.835938 3.09375 -29.046875 C 3.09375 -32.335938 4.175781 -34.867188 6.34375 -36.640625 C 8.519531 -38.410156 11.472656 -39.296875 15.203125 -39.296875 C 18.453125 -39.296875 21.046875 -38.679688 22.984375 -37.453125 C 24.921875 -36.222656 25.890625 -34.757812 25.890625 -33.0625 C 25.890625 -31.9375 25.445312 -31.035156 24.5625 -30.359375 C 23.675781 -29.691406 22.472656 -29.359375 20.953125 -29.359375 C 20.953125 -32.472656 20.472656 -34.804688 19.515625 -36.359375 C 18.554688 -37.921875 16.953125 -38.703125 14.703125 -38.703125 C 12.785156 -38.703125 11.191406 -38.128906 9.921875 -36.984375 C 8.660156 -35.847656 8.03125 -34.050781 8.03125 -31.59375 C 8.03125 -29.925781 8.347656 -28.550781 8.984375 -27.46875 C 9.617188 -26.382812 10.613281 -25.425781 11.96875 -24.59375 C 13.320312 -23.757812 15.050781 -22.867188 17.15625 -21.921875 C 19.175781 -21.054688 20.957031 -20.144531 22.5 -19.1875 C 24.039062 -18.226562 25.242188 -17.0625 26.109375 -15.6875 C 26.972656 -14.3125 27.40625 -12.570312 27.40625 -10.46875 C 27.40625 -7.101562 26.238281 -4.425781 23.90625 -2.4375 C 21.570312 -0.445312 18.253906 0.546875 13.953125 0.546875 Z M 13.953125 0.546875 "/></g></g></g><g fill="#fbb131" fill-opacity="1"><g transform="translate(104.130865, 221.726733)"><g><path d="M 0.046875 0 L 0.046875 -0.546875 L 1.796875 -0.546875 C 2.910156 -0.546875 3.789062 -0.851562 4.4375 -1.46875 C 5.09375 -2.082031 5.695312 -3.164062 6.25 -4.71875 L 18.296875 -38.75 L 21.765625 -38.75 L 34.953125 -3.6875 C 35.421875 -2.5 35.910156 -1.675781 36.421875 -1.21875 C 36.929688 -0.769531 37.601562 -0.546875 38.4375 -0.546875 L 38.96875 -0.546875 L 38.96875 0 L 23.234375 0 L 23.234375 -0.546875 L 24.96875 -0.546875 C 26.195312 -0.546875 27.082031 -0.695312 27.625 -1 C 28.164062 -1.3125 28.4375 -1.863281 28.4375 -2.65625 C 28.4375 -2.945312 28.398438 -3.300781 28.328125 -3.71875 C 28.253906 -4.132812 28.128906 -4.597656 27.953125 -5.109375 L 24.703125 -14.109375 L 10.203125 -14.109375 L 7.171875 -5.59375 C 6.984375 -5.050781 6.832031 -4.570312 6.71875 -4.15625 C 6.613281 -3.738281 6.5625 -3.347656 6.5625 -2.984375 C 6.5625 -2.078125 6.929688 -1.441406 7.671875 -1.078125 C 8.421875 -0.722656 9.628906 -0.546875 11.296875 -0.546875 L 13.25 -0.546875 L 13.25 0 Z M 10.375 -14.65625 L 24.484375 -14.65625 L 20.6875 -25.078125 C 20.070312 -26.773438 19.472656 -28.484375 18.890625 -30.203125 C 18.304688 -31.921875 17.835938 -33.503906 17.484375 -34.953125 C 16.972656 -33.429688 16.472656 -31.984375 15.984375 -30.609375 C 15.492188 -29.234375 14.941406 -27.660156 14.328125 -25.890625 Z M 10.375 -14.65625 "/></g></g></g><g fill="#fbb131" fill-opacity="1"><g transform="translate(143.096358, 221.726733)"><g><path d="M 1.90625 0 L 1.90625 -0.546875 L 3.046875 -0.546875 C 4.304688 -0.546875 5.289062 -0.832031 6 -1.40625 C 6.707031 -1.988281 7.0625 -2.96875 7.0625 -4.34375 L 7.0625 -34.578125 C 7.0625 -35.878906 6.707031 -36.8125 6 -37.375 C 5.289062 -37.9375 4.304688 -38.21875 3.046875 -38.21875 L 1.90625 -38.21875 L 1.90625 -38.75 L 18.515625 -38.75 L 18.515625 -38.21875 L 17.375 -38.21875 C 16.101562 -38.21875 15.125 -37.925781 14.4375 -37.34375 C 13.75 -36.769531 13.40625 -35.8125 13.40625 -34.46875 L 13.40625 -0.546875 L 22.859375 -0.546875 C 24.847656 -0.546875 26.4375 -0.832031 27.625 -1.40625 C 28.820312 -1.988281 29.71875 -2.941406 30.3125 -4.265625 C 30.914062 -5.585938 31.285156 -7.40625 31.421875 -9.71875 L 31.59375 -11.78125 L 32.140625 -11.78125 L 31.75 0 Z M 1.90625 0 "/></g></g></g><g fill="#fbb131" fill-opacity="1"><g transform="translate(177.394677, 221.726733)"><g><path d="M 20.46875 0.546875 C 16.5625 0.546875 13.3125 -0.285156 10.71875 -1.953125 C 8.132812 -3.617188 6.207031 -5.953125 4.9375 -8.953125 C 3.675781 -11.960938 3.046875 -15.472656 3.046875 -19.484375 C 3.046875 -23.503906 3.6875 -27 4.96875 -29.96875 C 6.25 -32.9375 8.179688 -35.242188 10.765625 -36.890625 C 13.359375 -38.535156 16.609375 -39.359375 20.515625 -39.359375 C 24.210938 -39.359375 27.351562 -38.535156 29.9375 -36.890625 C 32.519531 -35.242188 34.488281 -32.925781 35.84375 -29.9375 C 37.207031 -26.945312 37.890625 -23.445312 37.890625 -19.4375 C 37.890625 -15.414062 37.207031 -11.910156 35.84375 -8.921875 C 34.488281 -5.941406 32.519531 -3.617188 29.9375 -1.953125 C 27.351562 -0.285156 24.195312 0.546875 20.46875 0.546875 Z M 20.46875 0 C 24.15625 0 26.832031 -1.535156 28.5 -4.609375 C 30.164062 -7.691406 31 -12.632812 31 -19.4375 C 31 -26.238281 30.164062 -31.164062 28.5 -34.21875 C 26.832031 -37.28125 24.171875 -38.8125 20.515625 -38.8125 C 16.828125 -38.8125 14.128906 -37.28125 12.421875 -34.21875 C 10.722656 -31.164062 9.875 -26.238281 9.875 -19.4375 C 9.875 -12.632812 10.710938 -7.691406 12.390625 -4.609375 C 14.078125 -1.535156 16.769531 0 20.46875 0 Z M 20.46875 0 "/></g></g></g><g fill="#fbb131" fill-opacity="1"><g transform="translate(218.313871, 221.726733)"><g><path d="M 20.46875 0.546875 C 16.5625 0.546875 13.3125 -0.285156 10.71875 -1.953125 C 8.132812 -3.617188 6.207031 -5.953125 4.9375 -8.953125 C 3.675781 -11.960938 3.046875 -15.472656 3.046875 -19.484375 C 3.046875 -23.503906 3.6875 -27 4.96875 -29.96875 C 6.25 -32.9375 8.179688 -35.242188 10.765625 -36.890625 C 13.359375 -38.535156 16.609375 -39.359375 20.515625 -39.359375 C 24.210938 -39.359375 27.351562 -38.535156 29.9375 -36.890625 C 32.519531 -35.242188 34.488281 -32.925781 35.84375 -29.9375 C 37.207031 -26.945312 37.890625 -23.445312 37.890625 -19.4375 C 37.890625 -15.414062 37.207031 -11.910156 35.84375 -8.921875 C 34.488281 -5.941406 32.519531 -3.617188 29.9375 -1.953125 C 27.351562 -0.285156 24.195312 0.546875 20.46875 0.546875 Z M 20.46875 0 C 24.15625 0 26.832031 -1.535156 28.5 -4.609375 C 30.164062 -7.691406 31 -12.632812 31 -19.4375 C 31 -26.238281 30.164062 -31.164062 28.5 -34.21875 C 26.832031 -37.28125 24.171875 -38.8125 20.515625 -38.8125 C 16.828125 -38.8125 14.128906 -37.28125 12.421875 -34.21875 C 10.722656 -31.164062 9.875 -26.238281 9.875 -19.4375 C 9.875 -12.632812 10.710938 -7.691406 12.390625 -4.609375 C 14.078125 -1.535156 16.769531 0 20.46875 0 Z M 20.46875 0 "/></g></g></g><g fill="#fbb131" fill-opacity="1"><g transform="translate(259.233065, 221.726733)"><g><path d="M 1.90625 0 L 1.90625 -0.546875 L 3.96875 -0.546875 C 5.226562 -0.546875 6.210938 -0.832031 6.921875 -1.40625 C 7.628906 -1.988281 7.984375 -2.96875 7.984375 -4.34375 L 7.984375 -34.625 C 7.984375 -35.894531 7.628906 -36.8125 6.921875 -37.375 C 6.210938 -37.9375 5.226562 -38.21875 3.96875 -38.21875 L 1.90625 -38.21875 L 1.90625 -38.75 L 13.40625 -38.75 L 33.65625 -8.25 L 33.65625 -34.46875 C 33.65625 -35.8125 33.3125 -36.769531 32.625 -37.34375 C 31.9375 -37.925781 30.957031 -38.21875 29.6875 -38.21875 L 27.46875 -38.21875 L 27.46875 -38.75 L 40.4375 -38.75 L 40.4375 -38.21875 L 38.21875 -38.21875 C 36.945312 -38.21875 35.957031 -37.925781 35.25 -37.34375 C 34.550781 -36.769531 34.203125 -35.796875 34.203125 -34.421875 L 34.203125 0 L 32.140625 0 L 8.515625 -35.546875 L 8.515625 -4.34375 C 8.515625 -2.96875 8.859375 -1.988281 9.546875 -1.40625 C 10.234375 -0.832031 11.210938 -0.546875 12.484375 -0.546875 L 14.921875 -0.546875 L 14.921875 0 Z M 1.90625 0 "/></g></g></g><g fill="#fffafa" fill-opacity="1"><g transform="translate(126.105698, 256.729627)"><g><path d="M 5 0 L 2.59375 0 L 2.59375 -21.25 L 12.15625 -21.25 C 14.40625 -21.25 16.191406 -20.628906 17.515625 -19.390625 C 18.828125 -18.140625 19.484375 -16.476562 19.484375 -14.40625 C 19.484375 -12.3125 18.820312 -10.648438 17.5 -9.421875 C 16.1875 -8.191406 14.40625 -7.578125 12.15625 -7.578125 L 5 -7.578125 Z M 5 -18.96875 L 5 -9.828125 L 12 -9.828125 C 13.664062 -9.828125 14.925781 -10.234375 15.78125 -11.046875 C 16.644531 -11.859375 17.078125 -12.972656 17.078125 -14.390625 C 17.078125 -15.816406 16.644531 -16.9375 15.78125 -17.75 C 14.925781 -18.5625 13.664062 -18.96875 12 -18.96875 Z M 5 -18.96875 "/></g></g></g><g fill="#fffafa" fill-opacity="1"><g transform="translate(170.919726, 256.729627)"><g><path d="M 5 0 L 2.59375 0 L 2.59375 -21.25 L 12.765625 -21.25 C 14.929688 -21.25 16.664062 -20.648438 17.96875 -19.453125 C 19.28125 -18.273438 19.9375 -16.660156 19.9375 -14.609375 C 19.9375 -11.953125 18.832031 -10.140625 16.625 -9.171875 C 16 -8.898438 15.390625 -8.695312 14.796875 -8.5625 L 20.375 0 L 17.515625 0 L 12.390625 -8.15625 L 5 -8.15625 Z M 5 -10.4375 L 12.359375 -10.4375 C 14.628906 -10.4375 16.191406 -11.140625 17.046875 -12.546875 C 17.359375 -13.078125 17.515625 -13.765625 17.515625 -14.609375 C 17.515625 -15.953125 17.054688 -17.015625 16.140625 -17.796875 C 15.222656 -18.578125 14.003906 -18.96875 12.484375 -18.96875 L 5 -18.96875 Z M 5 -10.4375 "/></g></g></g><g fill="#fffafa" fill-opacity="1"><g transform="translate(217.049756, 256.729627)"><g><path d="M 12.03125 -21.5 C 15.195312 -21.5 17.796875 -20.441406 19.828125 -18.328125 C 21.816406 -16.273438 22.8125 -13.707031 22.8125 -10.625 C 22.8125 -7.539062 21.816406 -4.972656 19.828125 -2.921875 C 17.796875 -0.804688 15.195312 0.25 12.03125 0.25 C 8.863281 0.25 6.265625 -0.804688 4.234375 -2.921875 C 2.242188 -4.972656 1.25 -7.539062 1.25 -10.625 C 1.25 -13.707031 2.242188 -16.273438 4.234375 -18.328125 C 6.265625 -20.441406 8.863281 -21.5 12.03125 -21.5 Z M 12.03125 -2.09375 C 14.5625 -2.09375 16.609375 -2.914062 18.171875 -4.5625 C 19.660156 -6.144531 20.40625 -8.164062 20.40625 -10.625 C 20.40625 -13.082031 19.660156 -15.101562 18.171875 -16.6875 C 16.609375 -18.332031 14.5625 -19.15625 12.03125 -19.15625 C 9.507812 -19.15625 7.46875 -18.332031 5.90625 -16.6875 C 4.40625 -15.101562 3.65625 -13.082031 3.65625 -10.625 C 3.65625 -8.164062 4.40625 -6.144531 5.90625 -4.5625 C 7.46875 -2.914062 9.507812 -2.09375 12.03125 -2.09375 Z M 12.03125 -2.09375 "/></g></g></g></svg>